<svg version="1.1" id="_x2018_ëîé_x5F_1" xmlns="http://www.w3.org/2000/svg" x="0" y="0" viewBox="0 0 125.4 60.1" xml:space="preserve"><style>.st0{fill:#c4c4c4}.st2{fill:#474635}.st3{fill:#52503d}.st5{fill:#6b6950}.st7{fill:#ebebeb}.st9{fill:#637196}.st10{fill:#47516b}</style><path class="st0" d="M95.7 29.7h3.1v20.4h-3.1z"/><path fill="#ba973d" d="M89.7 21.4h7.5v36.3h-7.5z"/><path class="st0" d="M118.1 21.4h2.2v36.3h-2.2z"/><path class="st0" d="M83.4 20.9h41.9v2H83.4z"/><path class="st2" d="M55.9 20.9h69.5L99.3 8.7H55.9z"/><path class="st3" d="M119.4 18.2L99.3 8.7H55.9v9.5z"/><path fill="#d4ac46" d="M12.5 21.4h79.9v36.3H12.5z"/><path class="st2" d="M46.3 22.3h49v2h-49z"/><path class="st0" d="M12.5 53.9h79.9v3.8H12.5z"/><path class="st5" d="M95.3 22.3L47.9 0 8.8 18v4.3z"/><path class="st3" d="M55.9 35.7h9.8v21.2h-9.8z"/><path class="st0" d="M55.9 29.9h9.8V32h-9.8z"/><path class="st3" d="M8.8 18.2v4.1h86.5l-8.8-4.1z"/><path fill="#ffcf54" d="M52.9 57.6H4.3V22.2L28.6 9.9l24.3 12.3z"/><path class="st7" d="M4.3 53.9h48.6v3.7H4.3z"/><path fill="#7d7b5e" d="M28.6 7.6L2.1 20.9l2.2 1 24.3-11.5 24.5 11.5 2-1z"/><path class="st3" d="M45.2 10.1h2.6v.9h-2.6zm14.5 0h2.6v.9h-2.6z"/><path class="st2" d="M76.7 9.6h2.6v.9h-2.6zm19 1.3h2.6v.9h-2.6zm-7.4 3.9h2.6v.9h-2.6zm22.9 2.2h2.6v.9h-2.6z"/><path class="st3" d="M55 13.5h2.6v.9H55zM34.5 7.8h2.6v.9h-2.6zM46.6 4h2.6v.9h-2.6z"/><path class="st7" d="M18.5 29.8h20.2V50H18.5zm3.1-5.3h14.1v2.1H21.6z"/><path class="st5" d="M39.7 29.8h3.6V50h-3.6zm-25.8 0h3.6V50h-3.6z"/><path class="st9" d="M20.5 31.8h16.3v16.3H20.5z"/><path class="st7" d="M31.3 21.5h-5.4c-.4 0-.7-.3-.7-.7v-.3c0-1.9 1.5-3.4 3.4-3.4s3.4 1.5 3.4 3.4v.3c.1.4-.3.7-.7.7z"/><path class="st9" d="M29.9 20.5h-2.6c-.3 0-.6-.3-.6-.6 0-1 .9-1.9 1.9-1.9 1 0 1.9.9 1.9 1.9 0 .3-.3.6-.6.6z"/><path class="st10" d="M32.6 31.8H20.5V44z"/><path class="st0" d="M68.7 29.8h20.2V50H68.7z"/><path class="st10" d="M70.6 31.8h16.3v16.3H70.6z"/><path class="st0" d="M78 29.8h1.6V50H78z"/><path transform="rotate(90 78.782 44.102)" class="st0" d="M78 34h1.6v20.2H78z"/><path transform="rotate(90 88.901 51.993)" class="st7" d="M88.1 16h1.7v71.9h-1.7z"/><path class="st7" d="M53.9 51.7h1.7v7h-1.7zm5.3 0h1.7v7h-1.7zm5.3 0h1.7v7h-1.7zm5.4 0h1.7v7h-1.7zm5.3 0h1.7v7h-1.7zm5.4 0h1.7v7h-1.7zm5.3 0h1.7v7h-1.7zm5.3 0h1.7v7h-1.7zm5.4 0h1.7v7h-1.7zm5.3 0h1.7v7h-1.7zm5.3 0h1.7v7h-1.7zm5.3 0h1.7v7h-1.7zm5.4 0h1.7v7h-1.7zm5.3 0h1.7v7h-1.7z"/><path fill="#a2d94e" d="M0 56.6h124.9v3.5H0z"/></svg>