<svg version="1.1" id="Layer_1" xmlns="http://www.w3.org/2000/svg" x="0" y="0" viewBox="0 0 1179.6 1368.8" xml:space="preserve"><style>.st0{fill:#ea997d}.st2{fill:#30323d}.st5{fill:#ddd2d0}.st8{fill:#e45e4b}.st9{fill:#cc4d40}</style><path class="st0" d="M693.3 714.5l-155.7 30.1-40.1-235.8 155.6-30z"/><path d="M497.5 508.8l18.6 109.3c22.1-18.1 56.8-35.1 96.5-128.9l-115.1 19.6z" fill="#d87e66"/><path class="st2" d="M558.5 141.8c-7.1-3.1-14.5-6.5-22.2-10.4-133.5-68.1-87.1 106.2-149.2 142-62.1 35.8-13.1 86.9-3.6 126 9.5 39.1-73.5 77.3-43.6 124.2 13 20.4 52.9 31.7 67.7 32.2 14.8.5 69.3 17.2 69.3 17.2l77.6-311.2 20.7-53.6c.2-.1 11.7-22.9-16.7-66.4zM372.7 343.9s-22-42.5 20.9-64.1c.1 0-26.7 28.6-20.9 64.1zm13.7 102.2s-48.5 57.2-9.5 96c-.1 0-61.1-29.1 9.5-96z"/><path class="st0" d="M605.6 200.1s-101.7-15.6-133.9 106c-7.9 29.7-7.2 55.6-18.7 73.7-35.7 56.2-84.5 63.4-20.5 84.5 0 0 2.4 16.3.4 35.5-3.2 32-7.7 74.6 23.7 82.4 36.6 9.1 92.1-17 160.8-46 24.2-10.2 46.9-27.7 65.2-48.4 50.4-56.9 134.4-196.8-.9-267-19.8-10.2-45.9-13.2-76.1-20.7z"/><path class="st2" d="M778.5 293.3c-52.6-139.4-103.4-101.4-220-151.5-27.5 16.3-42.8 55.8-42.8 55.8-15.7 54.8 77.1 132.1 91.5 155.9 14.4 23.8 13.9 75.5 13.9 75.5l22.3 27.7c-3.7 23.6 20.1 82.3 20.1 82.3 44.2-23.5 149.6-154.2 115-245.7z"/><path d="M513.9 396.5c-1.7 7-7 11.8-11.7 10.6-4.7-1.2-7.1-7.8-5.3-14.9 1.7-7.1 7-11.8 11.7-10.7 4.6 1.3 7 7.9 5.3 15z" fill="#23242b"/><path class="st2" d="M549.2 371.7c1.2.3 2.7.3 3.8-.3 2.5-1.4 2.8-4.3 1.4-6.9-5.7-10.8-29.2-30.5-53.6-22.5-2.7.9-4.6 3.5-3.9 6.3.7 2.8 3.4 3.5 6.3 3.9 27.8 4.3 41.8 17.1 42 17.3 1.2 1.2 2.6 1.9 4 2.2z"/><path d="M475.8 505.7c2.4-.7 3.7-3.2 3-5.6-.7-2.4-3.2-3.7-5.6-3-16 4.8-29.5 3.9-40.2.8-.1.7-.1 1.4-.2 2-.2 2.3-.5 4.7-.7 7.1.4.1.7.2 1.1.3 11.8 2.8 26 3.3 42.6-1.6z" fill="#ce6565"/><path class="st5" d="M525 434.2s101.4-34.8 119.1-33.6c17.6 1.3 24.3 54.3-13 78.4-37.3 24.1-102.2 62.6-102.2 62.6l5.3-14s56.8-32.9 92-54c35.1-21.1 26.4-68.3 16.2-67.2-10.1 1.1-115.2 36.2-115.2 36.2l-2.2-8.4z"/><path d="M436.7 390.6s54.2 20.1 90.3 43.4c0 0 22 24.1 21.9 62-.1 37.9-50.1 80.1-82.6 92 0 0-15.9-3.5-24.7-11.7-8.2-7.6-28.8-32.6-32.8-39.9-4-7.4-11-85.4-7.9-98.6 3.2-13.2 35.8-47.2 35.8-47.2z" fill="#f9f9f9"/><path d="M431.1 396.6l33.1 18.6s4.1 2.3 1.8 5.4c-2.3 3.1-5.8.3-5.8.3l-33.8-19.2 4.7-5.1z" fill="#a39493"/><path class="st5" d="M462.1 582.4c.1 0 .2 0 .3-.1 14.6-4.2 75.2-43.6 78.3-80.6 3-36.5-19.6-63.6-20.6-64.7l-.4-.4-37.5-14.6c-.8-.5-1.9-.2-2.4.6s-.2 1.9.6 2.4l37.2 14.5c2.1 2.6 22.4 28.6 19.6 62-3 35.6-61.8 73.5-75.8 77.5-.9.3-1.4 1.2-1.2 2.1.3.8 1.1 1.3 1.9 1.3z"/><path class="st5" d="M501.4 465.2s-67.5-1.4-88.9-2.6c0 0 38.7-5.8 88.9 2.6zM416 527.1s66.2-12.8 87.4-16.1c0-.1-36.5 13.8-87.4 16.1z"/><path class="st0" d="M629.2 406.2s11.8-18.4 38.2-9.4c25.5 8.7.1 73.4-25.6 78.7-25.6 5.3-25-29.8-25-29.8l12.4-39.5zm-302.8 962.6c6.2-27 30.8-134.2 35.8-165.4 5.7-35.7 33.7-157.2 33.7-157.2l-120.4-14.4-34.1 154.5s-11.5 59.4-17 182.4h102z"/><path class="st8" d="M344.2 736.9s-47.8 29.5-76.9 167.7c-29.1 138.2-49.1 243.8-49.1 243.8s97.5 28.9 172.3 22.6c-.1-.1 52-336.3-46.3-434.1z"/><path class="st0" d="M495.3 661.8s26.4-6.7 36.7-27.9l138.4-10.4s24.9 21 46.6 27.2c0 0-56.9 84.7-159.7 72.7-79.6-9.3-62-61.6-62-61.6z"/><path class="st8" d="M839.9 1368.8L934 751.5C852.3 690 696.5 635.4 696.5 635.4s-49 50.2-110.5 60.6c-77 13-72.4-43.4-72.4-43.4-76.5 26.8-169.5 85-169.5 85-1.5 35-30.8 567.6-34.3 631.1h530.1z"/><path class="st9" d="M334.1 843c-4.5 86-11.2 210.3-16.9 317.4 2.4.4 4.8 1 7.2 1.8 5.9-107.6 12.7-232.7 17.4-319.2h-7.7z"/><path class="st0" d="M880.6 1368.8h146.3c.5-21.9 1.9-77.4 3.3-109.7 1.1-27-19.1-192.1-19.1-192.1l-157.2 10.5 25.1 196.1 1.6 95.2z"/><path class="st8" d="M934.1 750.8s60.3 42.5 70 106.7c9.7 64.2 32.4 310.5 32.4 310.5s-107 34.2-203.9 23.8c0 0-6.7-232.9-5.3-268.1 1.6-35.2 17.1-156.4 106.8-172.9z"/><path class="st9" d="M854.6 1190.3c-6.5-.3-12.8-.7-18.9-1.3-.7-25.7-6.6-232.6-5.2-265.3.2-4.3 1-18 4.1-35.9-2.1.1-4.2.1-6.3.1-3 17.8-3.8 31.4-4 35.7-1.5 34.9 5.2 266 5.3 268.3l.1 2.6 2.6.3c7.2.8 14.6 1.3 22.3 1.6-.1-1.6-.1-3.1 0-4.7-.1-.4 0-.9 0-1.4z"/></svg>