<svg version="1.1" id="content" xmlns="http://www.w3.org/2000/svg" xmlns:xlink="http://www.w3.org/1999/xlink" x="0" y="0" viewBox="0 0 343.7 224.4" xml:space="preserve"><style>.st0{fill:#f7b466}.st4{opacity:.42;fill:#fff}.st5{fill:#005272}.st6{fill:#fff}</style><path class="st0" d="M247 197.9l28.6-6.6c1.9 0 53.1 27.3 66.8 33.2l68.6-68.6-102.3-17c-4-2.1-17.2-40.3-34.2-48.5-9.4-4.5-38.1-22.7-38.1-22.7-6.1-4.6-21.1-26.3-25-22.8-4.3 3.9-8.6 11.4 3.4 28l18.7 23.8-58 24.7 17.2 52.7 27.4 18.6c8.4 4.1 17.7 5.9 26.9 5.2z"/><g opacity=".42"><path fill="#a97c50" d="M223 101.2l5.6 7.1-50.3 21.4-2.7-8.3z"/><path d="M411.1 155.9l-102.3-17c-3.9-2.1-16.4-38.1-32.7-47.7 15.3 20.2 32.6 65.2 21.2 79.2 8.8-11.9 113.8-14.5 113.8-14.5z" opacity=".53" fill="#4c4c4c"/></g><path class="st4" d="M215.8 46c3.3 2.5 7.8 7.6 11.9 12.4-3.7-.8-7.2-2.6-9.9-5.3l-1-1c-1.6-1.6-2-4.1-1-6.1z"/><path class="st4" d="M215.8 46c.4.3.8.6 1.2 1-.4 1.5-.6 3.1-.5 4.7-1.3-1.6-1.6-3.8-.7-5.7z"/><path class="st0" d="M124.7 110.7l97-8.2 1.7 21.5-97 8.2c-8.6.7-16-3.6-16.5-9.5-.4-6 6.2-11.3 14.8-12z"/><path class="st5" d="M90.7 63.5l45.2-45.2c6.1-6.1 16-6.1 22.1 0l106.5 106.5c6.1 6.1 6.1 16 0 22.1l-48 48c-6.1 6.1-13.2 3.3-19.3-2.8l-34.6-34.6-45.9-45.9-26-26c-6.1-6.1-6.1-16 0-22.1z"/><path class="st6" d="M94.2 60l45.2-45.2c6.1-6.1 16-6.1 22.1 0L268 121.3c6.1 6.1 6.1 16 0 22.1l-48 48c-6.1 6.1-13.2 3.3-19.3-2.8L166.2 154l-45.9-45.9-26.1-26c-6.1-6.1-6.1-16 0-22.1z"/><path d="M113 52l18.5-18.5c.4-.4 1-.4 1.4 0s.4 1 0 1.4l-18.5 18.5c-.4.4-1 .4-1.4 0-.4-.4-.4-1 0-1.4z" fill="#808285"/><defs><path id="SVGID_1_" d="M205 179.1c-2.4 2.4-6.2 2.4-8.6 0l-92.7-92.7c-2.4-2.4-2.4-6.2 0-8.6l53.5-53.5c2.4-2.4 6.2-2.4 8.6 0l92.7 92.7c2.4 2.4 2.4 6.2 0 8.6L205 179.1z"/></defs><use xlink:href="#SVGID_1_" overflow="visible" fill="#230962"/><clipPath id="SVGID_2_"><use xlink:href="#SVGID_1_" overflow="visible"/></clipPath><path class="st0" d="M137.9 146.4c-.5-4.3 2.6-8.2 6.9-8.7l9.7-1.1c8.6-1 14.5 1.7 15.4 8.4.9 6.7-4.3 12-12.9 13l-9.7 1.1c-4.3.5-8.2-2.6-8.7-6.9l-.7-5.8z"/><path class="st0" d="M155.9 163.8c-.8-7.3 6.3-7.7 9.3-8.1 3-.4 5.4-.7 5.4-.7 6-.8 11.4 2.9 12 8.2.7 5.3-3.6 10.2-9.6 10.9-2 .3-3.8.5-5.4.7-3 .4-10.3 1.8-11.3-7.4l-.4-3.6z"/><path class="st0" d="M177.8 171.1c6-.7 13.7.4 14.6 7.4 1 7.3-6 9.5-11.9 8.5-8-1.4-8.9-4.5-9.4-9.3-.6-4.8.7-5.9 6.7-6.6z"/><path class="st4" d="M159.8 139.2h2.1c1.3 0 2.3 1.1 2.1 2.4-.1 1.6-.2 3.4.1 4.9.2 1.3.6 2.9 1 4.4.3 1.2-.4 2.4-1.6 2.7-.9.2-1.8.3-2.7.5-7.6.9-9.5-14.8-1-14.9z"/><path class="st4" d="M154.8 142.7c.9 1.1 1.5 2.9 1.5 5 0 1.4-.2 2.7-.6 3.8-1.5-2.5-2-6.1-.9-8.8zm9.4 8.9c-.5-1.7-.9-3.4-1.1-4.8-.3-1.7-.2-3.5-.1-5.3.1-1-.4-1.9-1.2-2.3h.1c1.3 0 2.3 1.1 2.1 2.4-.1 1.6-.2 3.4.1 4.9.2 1.3.6 2.9 1 4.4.3 1-.2 2-1.1 2.5.3-.6.4-1.2.2-1.8zm8.6 5.8c1.1 0 2 .1 2.9.4.6.2 1.1.8 1.1 1.5.1 2.1.2 4.2.4 5.7.1.9.3 1.8.5 2.6.1.7-.1 1.4-.7 1.7-.9.5-2 .9-3.3 1.1-7.6 1.1-9.1-13-.9-13z"/><path class="st4" d="M167.9 160.5c.8.8 1.3 2.5 1.4 4.5 0 1.3-.1 2.5-.5 3.4-1.6-2.1-1.9-5.4-.9-7.9zm8.8 7.6c-.2-.9-.4-1.9-.5-2.9-.3-1.7-.4-4-.5-6.4 0-.4-.2-.8-.4-1.1.1 0 .3.1.4.1.6.2 1.1.8 1.1 1.5.1 2.1.2 4.2.4 5.7.1.9.3 1.8.5 2.6.1.7-.1 1.4-.7 1.7-.2.1-.5.3-.8.4.5-.3.7-1 .5-1.6zm8.2 6.1c3.5 0 4.2 10.5.7 10.4-9.2-.4-7.2-10.4-.7-10.4z"/><path class="st4" d="M180 177.1c.7.5 1.1 1.7 1.1 3.1 0 .9-.2 1.7-.6 2.3-1.4-1.5-1.4-3.6-.5-5.4zm4.7-2.9h.2c3.4 0 4.2 9.9 1 10.3 2.1-1.8 1.4-9.2-1.2-10.3z"/><path class="st6" d="M2.7 90.1L80 12.8c3.6-3.6 9.5-3.6 13.1 0l41.7 41.7c3.6 3.6 3.6 9.5 0 13.1l-6.2 6.2L141 90.4l-29.5.5L57.4 145c-3.6 3.6-9.5 3.6-13.1 0L2.7 103.2c-3.6-3.6-3.6-9.5 0-13.1z"/><path class="st5" d="M64.7 84.4c2.6 2.6 6.9 2.6 9.6 0s2.6-6.9 0-9.6c-2.6-2.6-6.9-2.6-9.6 0s-2.6 7 0 9.6zM49 100.2c2.6 2.6 6.9 2.6 9.6 0s2.6-6.9 0-9.6C56 88 51.7 88 49 90.6c-2.7 2.6-2.7 6.9 0 9.6zm31.5-31.5c2.6 2.6 6.9 2.6 9.6 0 2.6-2.6 2.6-6.9 0-9.6-2.6-2.6-6.9-2.6-9.6 0-2.7 2.7-2.7 6.9 0 9.6z"/></svg>