<svg xmlns="http://www.w3.org/2000/svg" viewBox="0 0 384 178.4"><path d="M170.9 38.2c-40.4 52-11.6 106.2 1.5 125.8 0 0 6.1-22 21.9-48 1.8-4.7 4.5-13.2 5.1-24.3 1.2-22-5.6-41.2-5.6-41.2s10.3 15.8 10.7 40.9c.1 3.8-.8 8.2-1.6 11.6 6.9-9.6 15.1-19.4 24.8-28.5 2.3-3.7 4.9-9.2 6.6-16.2 4.4-18.1.6-35.7.6-35.7s7.6 15.6 4.3 36.6c-.4 2.4-1.3 5-2.3 7.2 8.6-6.9 18.2-13.2 28.8-18.4 2.1-2.4 4.2-5.5 6.1-9.3 7.6-15 7.4-31.9 7.4-31.9s4.3 16-2.9 34c-.4 1-1 2.1-1.6 3 15.4-6.3 33-10.4 52.8-11.1-22.2 4.2-40.9 11-56.9 19.4 18.6-1.3 31.7 5.4 31.7 5.4s-17.5-4.1-35.7 0c-4.9 1.1-9.1 2.7-12.4 4.3-19.6 13.2-34 28.8-44.4 43.9 2.6-1.9 6-4.1 9.1-5.4 23.2-9.5 41.8-6.3 41.8-6.3s-20.3 1.3-40.1 11c-8.2 4.1-14.3 8.7-18.1 12.2C186 146 183 170.6 183 170.6c26.8 7.4 90.5 20.2 125.9-25.5C359.4 80 384 11 384 11S221.4-26.9 170.9 38.2z" fill="#95c11f"/><path d="M165.1 67.5c33.5 37.9 14.2 80.9 5.1 96.6 0 0-5.8-16.6-19.2-35.7-1.6-3.5-4.1-9.9-5.1-18.4-2-16.8 2.3-31.9 2.3-31.9s-7.1 12.6-6.2 31.9c.1 2.9 1 6.3 1.8 8.8-5.7-7-12.5-14.1-20.4-20.6-1.9-2.8-4.2-6.8-5.9-12.1-4.3-13.7-2.3-27.4-2.3-27.4S110.1 71 113.7 87c.4 1.8 1.2 3.7 2.1 5.4-6.9-4.9-14.6-9.2-23-12.7-1.7-1.8-3.5-4-5.2-6.8-6.6-11.2-7.2-24.1-7.2-24.1s-2.5 12.5 3.9 26c.4.8.8 1.5 1.4 2.3-12.1-4-25.8-6.3-41.1-5.9 17.2 2.2 31.9 6.4 44.6 12-14.3 0-24.1 5.7-24.1 5.7s13.2-4 27.4-1.7c3.8.6 7.1 1.6 9.7 2.7 15.7 9.1 27.5 20.4 36.2 31.5-2.1-1.4-4.8-2.9-7.3-3.7-18.3-6.1-32.3-2.7-32.3-2.7s15.6 0 31.3 6.5c6.5 2.7 11.4 6 14.5 8.5 14.1 21.3 17.6 40 17.6 40-20.2 7-68.4 19.9-97.9-13.3C22.3 109.3 0 57.5 0 57.5s123.2-37.4 165.1 10z" fill="#81a71b"/></svg>