<svg version="1.1" id="Layer_1" xmlns="http://www.w3.org/2000/svg" x="0" y="0" viewBox="0 0 1179.6 1368.8" xml:space="preserve"><style>.st0{fill:#fccf8d}.st1{fill:#c4a37c}.st2{fill:#a86555}.st4{fill:#30323d}.st7{fill:#e45e4b}.st8{fill:#bf463a}</style><path class="st0" d="M339.8 1253.4c-6.4 59.2-15.9 98.5-20.6 115.4h154.1c12.5-73.6 89.9-560.5-29-631.9 0 0-37.3 26.7-59.6 106.4-12.7 45.5-21 206.1-35.7 336.8-1.3 11.7-13.3 15.4-14.6 26.6-1 9.9 6.4 37.2 5.4 46.7z"/><path class="st1" d="M355.8 1186.1c-1.1 0-2.1-.6-2.7-1.5-.9-1.5-.4-3.4 1.1-4.2.3-.2 31-18.1 45.6-31.2 1.3-1.1 3.2-1 4.4.2 1.1 1.3 1 3.2-.2 4.4-15.1 13.5-45.3 31.2-46.6 31.9-.5.2-1.1.4-1.6.4zm-11.4 54.4c-.6 0-1.2 0-1.6-.1-1.7-.3-2.8-2-2.4-3.6.3-1.7 1.9-2.8 3.6-2.5 3.6.7 32.8-6.7 56.1-22.8 1.4-1 3.3-.6 4.3.8s.6 3.3-.8 4.3c-21.4 14.8-50 23.9-59.2 23.9zm254.8-622.2S692 591.5 751 599.4v41.7l-154 15.5 2.2-38.3z"/><path class="st2" d="M760.8 738.3L626.9 759l-40.2-235.7 134-20.7z"/><path d="M586.7 523.3l18.6 109.3c22.1-18.1 55.8-32.8 95.5-126.6l-114.1 17.3z" fill="#8c4f45"/><path class="st2" d="M511.7 704s91.8-38.9 96.2-56l135.9-9.5s63.3 42.3 116.8 61.5c0 0-122.3 125.5-247.6 112.7C533.2 804.5 511.7 704 511.7 704zm175.6-473.9s-95.5-20.3-129.8 97.2c-9.7 33.4-5.8 69.7-19.2 84.8-28.6 32-62.4 43.5-16.2 64 0 0 2 15.3 0 33.3-3.4 30-8 69.9 21.4 77.6 34.2 8.9 86.5-15 151.3-41.4 22.9-9.3 44.3-25.5 61.7-44.7 47.8-52.9 128.1-183.2 2-250.5-18.6-9.9-43-13-71.2-20.3z"/><path class="st4" d="M630.3 399.6c1.1.3 1.9 0 3-.6 2.4-1.3 3.1-3.8 1.9-6.2-5.3-10.2-21.4-25-50-21.7-2.7.3-4.3 3.2-3.7 5.9.6 2.6 3.2 3.3 5.8 3.7 26.9 4.1 39 16.5 39.2 16.6 1.3 1.4 2.5 2 3.8 2.3z"/><path d="M562.3 515.4c2.2-.6 3.5-3 2.9-5.2-.6-2.2-3-3.6-5.2-2.9-15 4.3-27.7 3.3-37.7.3-.1.6-.1 1.3-.2 1.9-.2 2.2-.5 4.4-.7 6.6.4.1.7.2 1.1.3 10.8 2.8 24.2 3.5 39.8-1z" fill="#ce6565"/><path d="M596.8 422.4c-1.8 7-6.8 11.8-11.3 10.6-4.4-1.1-6.5-7.7-4.7-14.7 1.8-7 6.9-11.8 11.2-10.6 4.5 1.1 6.6 7.7 4.8 14.7z" fill="#23242b"/><path class="st4" d="M604.4 251.4s74.3 24.9 73.3 80.8 11.5 94.6 23.1 115.4c11.6 20.8-6.6 73.5 29.3 110.6 0 0 23-19.6 44-31.9 21-12.3 27.2 30.3 50.5 8.5 23.4-21.9 41.5.8 43.7-28.7 1.9-26.3 28.7-3.9 27.9-30.5-.8-26.6 23.3-24 10.9-55.2-8.6-21.7 20.7-32.8 1.3-58.7-12.4-16.6 14.5-34.9-5-51.2-19.4-16.3-10.9-47.4-36.5-55.1-25.6-7.8-22.8-36.5-40.9-33.4-18.1 3.1-28.2-24.8-46.8-17.1-18.6 7.8-25-10.1-48.2-.8-23.3 9.3-92.5-11.7-126.6 47.3z"/><path class="st7" d="M797.6 426.1c-1.7 29-6.5 61.6-15.3 98 0 0-.1 10.3-7.5 12.7-7.4 2.3-29.5 25.2-37.1 15.2-1.8-2.5-2-11.6-1.6-25.5.3-9.8.8-22.1 1.3-36.1.2-4.8.3-9.9.5-15.1.4-14.6.6-30.6.3-47.5-.2-12.3-.7-25-1.6-37.9-.8-12.7-2.1-25.6-3.9-38.5-1.8-13.2-4.1-26.3-7.1-39.2-.5-2-.9-4-1.4-6-3.1-13.4-6-25-8.6-35-16.1-62.4-21.8-63.6-22.2-63.6.7-.3 20.6-10 38.1 7.5 3.9 3.9 11.1 11.1 19.3 22 7.3 9.7 15.3 22.4 22.7 38.5 11.6 25.3 21.5 59.2 24 103.3 1.1 14.5 1.1 30.2.1 47.2z"/><path class="st0" d="M762.5 491c3.9 13.3-12.3 29.9-26.4 35.3.3-9.8.8-22.1 1.3-36.1 10.7-5.5 22.3-8.8 25.1.8zm-25.7-101.3c-.8-12.7-2.1-25.6-3.9-38.5 19.1-10.5 41.3-18.8 39.7-.4-1.9 21.7-22 34.4-35.8 38.9zm37-114.2c-15.7 11.4-34.3 22.6-49.4 30.5-3.1-13.4-6-25-8.6-35 8.5-12.6 20.2-25.7 35.2-34 7.3 9.6 15.4 22.3 22.8 38.5zm23.8 150.6c-16.3 18.8-40.5 38.5-59.6 49.1.4-14.6.6-30.6.3-47.5 13.6-23.1 34.9-49.9 59.5-48.8.8 14.5.8 30.2-.2 47.2z"/><path class="st8" d="M762.5 535.1c-.1 0-.3 0-.4-.1-.8-.2-1.3-1.1-1.1-1.9.3-.9 25.8-95.2 18.9-192.3-.1-.9.6-1.6 1.4-1.7.8-.1 1.6.6 1.7 1.4 7 97.8-18.7 192.5-19 193.5-.2.7-.8 1.1-1.5 1.1zm-12.2-104.4s-.1 0 0 0c-.9 0-1.6-.7-1.5-1.5 6.5-116-42.2-216.4-42.7-217.4-.4-.8-.1-1.7.7-2.1.8-.4 1.7 0 2.1.7.5 1 49.5 102 43 218.9-.1.9-.8 1.4-1.6 1.4z"/><path class="st7" d="M707.8 204.5h-.4l-12.1 2.2s-20.4 2.6-40.1-4.5c-10.3-3.7-20.5-10.2-27.5-21-4.3-6.8-7.5-15.3-8.6-26.1 0 0 15.8-1.5 34.3 2.9 14.8 3.5 31.6 10.7 43.2 25.4 4.5 5.7 8.2 12.5 11.2 20.7.2.1 0 .2 0 .4z"/><path class="st0" d="M696.5 183.4c-11.4 5.8-27.1 14.7-41.2 18.8-10.3-3.7-20.5-10.2-27.4-21 6.7-7.7 15.9-16.9 25.8-23.2 14.6 3.5 31.1 10.7 42.8 25.4z"/><path class="st8" d="M693.3 204c-10.6 0-38.2-12.6-44.2-15.4-.8-.4-1.1-1.3-.8-2.1.4-.8 1.3-1.1 2.1-.8 22.2 10.3 42.5 17.1 44.5 14.8 1.2-5.1-33.2-28.8-39.4-32.2-.7-.4-1-1.3-.6-2.1.4-.7 1.3-1 2.1-.7.4.2 43.1 26.8 41 35.7-.2.7-.6 1.6-1.8 2.2-.7.5-1.7.6-2.9.6z"/><path class="st0" d="M695.2 206.7s-4.3-7.9 0-10.4 11.5-6.9 18.5-5c7 1.9 22.1 11.4 12.5 19-3.9 3.2-16.1-3-31-3.6z"/><path class="st7" d="M797.5 161.4c-6.2 60.6-76 51.6-76 51.6l-12-4.2c.3-1.1-.2-.1.2-1.1 0-.1 8.1-16.4 13.7-22.2 12.4-13.1 29.4-19.2 43.7-22 16.7-3.4 30.4-2.1 30.4-2.1z"/><path class="st0" d="M771.1 196.3c-10.4 3.5-33.5-5.2-47.1-10.9 12.4-13.1 29.1-19.2 43.4-22 7 11 14.8 29.1 3.7 32.9z"/><path class="st8" d="M718.1 207.9h-.3c-1.6-.1-2-1.1-2.1-1.5-.3-1.3-1.1-4.2 39-29.3.7-.5 1.7-.2 2.1.5.5.7.2 1.7-.5 2.1-15.3 9.6-31.5 20.6-36.3 25 9.7-.9 38.3-7.6 43.1-11.2.7-.5 1.7-.4 2.2.3.5.7.4 1.7-.3 2.2-6.1 4.7-39.9 11.9-46.9 11.9z"/><path d="M631.3 469.5s72.2-41.5 88.4-40.1c16.3 1.4 32.1 55.4-2.6 77.2-34.6 21.8-83.9 35.6-83.9 35.6l-4.4-14.5s50.6-8.8 83.2-27.9c32.6-19.1 15.1-63.9 5.8-62.9-9.4.9-80.4 47.5-80.4 47.5l-6.1-14.9z" fill="#efe9e8"/><path d="M530.2 414.3s70.4 41.4 112 47.6c0 0 11.9 36.5 6.4 71-1.4 9-63 53.1-93.1 63.7 0 0-14.6-3.4-22.6-11-7.5-7.1-26.2-30.3-29.9-37.2-3.7-6.8-9.2-78.9-6.3-91 3.1-12.1 33.5-43.1 33.5-43.1z" fill="#f9f9f9"/><path d="M550.3 591.6c-.4-.1-.8-.4-.9-.8-.3-.7 0-1.6.7-1.9 46.9-21.2 85-54.1 89.1-57.7 4-23.7-4.1-55.5-5.6-61.1-53-8.5-107.2-45-107.8-45.4-.7-.4-.8-1.3-.4-2s1.3-.8 2-.4c.5.4 54.9 37 107.5 45.1.6.1 1 .5 1.2 1 .4 1.5 10.5 37.1 5.8 63.8-.1.3-.2.6-.5.8-.4.4-40.3 36-90.2 58.5-.3.2-.6.2-.9.1z" fill="#dbd0ce"/><path class="st2" d="M701.7 444.7s11.3-17.1 35.9-8.4c23.8 8.5-.7 68.9-24.8 73.6-24.1 4.7-23.1-28.2-23.1-28.2l12-37z"/><path class="st0" d="M413.4 1368.8h418.9c4.6-58 24.6-141.2 34.6-199.8 17.1-99.4 93.9-412.2 93.9-412.2-13.1-11.2-106.2-66.6-188.5-107.4l.5-3.6c-4.1-7.1-23.2-46.3-23.2-46.3l-115.4 91.9-35.7-73S577 653 572.9 662.7l.3 4.1c-35.5 18.4-100.1 50.9-128.8 69.6 0 0 9.2 96.6 9.2 113.8 0 43.7-54.5 137.9-57.5 170.9-4.7 52.1.9 73.8 12.8 127.3 8.6 38.6 6.4 138.1 4.5 220.4z"/><path class="st1" d="M446.2 791.4c2.2 24.9 4.2 50.7 4.2 58.7 0 24-17.4 64.9-32.8 101-12.5 29.4-23.3 54.7-24.7 69.6-4.6 50.3.4 72.5 11.3 121.3l1.6 7c8.3 37.1 6.4 132.7 4.6 212.1h6.2c1.8-79.7 3.7-175.7-4.7-213.4l-1.6-7c-10.8-48.1-15.7-70.1-11.2-119.4 1.3-13.9 12.4-40 24.2-67.7 15.6-36.6 33.3-78.1 33.3-103.5 0-8.4-2.1-35.1-4.4-60.5-1.9.6-3.9 1.2-6 1.8zm146.6 144.7c-.8 0-1.7-.3-2.3-1-1.1-1.3-1-3.2.2-4.4 43.2-38.6 144.1-91.5 145.1-92 1.5-.8 3.4-.2 4.2 1.3.8 1.5.2 3.4-1.3 4.2-1 .5-101.2 53.1-143.9 91.2-.5.4-1.3.7-2 .7zM672 746.7h-.3c-.9-.1-1.7-.5-2.2-1.3L633 695.3c-1-1.4-.7-3.3.7-4.3s3.3-.7 4.3.7l34.4 47.2 94.5-89.9c1.2-1.2 3.2-1.1 4.4.1 1.2 1.2 1.1 3.2-.1 4.4l-97 92.4c-.6.5-1.4.8-2.2.8z"/><path class="st1" d="M591.3 739.4c-.2 0-.5 0-.8-.1-1.1-.3-1.9-1.1-2.2-2.2L570 670.7c-.5-1.7.5-3.4 2.2-3.8 1.6-.5 3.4.5 3.8 2.2l16.8 61.1 35.4-37.6c1.2-1.2 3.1-1.3 4.4-.1 1.2 1.2 1.3 3.1.1 4.4l-39.2 41.6c-.6.6-1.4.9-2.2.9z"/><path class="st1" d="M548.2 1368.8h6.3c4.2-20.8 29.9-156.7 13.5-262.2-17-109.2 26.7-220 41-256.4l1.8-4.5c12.9-33.2 22.4-137.9 22.8-142.3.2-1.7-1.1-3.2-2.8-3.4-1.7-.2-3.2 1.1-3.4 2.8-.1 1.1-9.8 108.3-22.4 140.6l-1.8 4.5c-14.5 36.8-58.6 148.8-41.4 259.6 16.7 107-10.5 245.8-13.6 261.3z"/><path class="st0" d="M871.3 1210.4c.8 9.5 6.4 22.2 7.2 31.5 5.7 68.1 4.7 109.6 3.8 126.9h146c4.8-58 11.4-107.6 7.8-154.2-10.1-128.9-11.2-244.3-21.8-315-17.8-118.8-53.5-143.4-53.5-143.4-51.8 3.9-109.6 63.2-114.9 116-2.7 27.1 22 184.7 31.8 307 .8 9.2-7.1 22.2-6.4 31.2z"/><path class="st1" d="M849 872.7c1.2-11.6 5-23.5 10.8-35.1-2-.8-3.9-1.7-5.7-2.8-6 12.2-10 24.9-11.3 37.2-1.5 14.5 4.6 63.9 12.2 126.6 5.3 43.6 11.1 91.5 15.7 137.5 2-.3 4.1-.5 6.2-.6-4.6-46.1-10.4-94.1-15.7-137.7-7.3-59.7-13.6-111.3-12.2-125.1zm38.8 313.4c-.9 0-1.7-.4-2.3-1.1-1.1-1.3-1-3.3.3-4.4.3-.3 30.1-26.4 46.7-53.6.9-1.5 2.8-1.9 4.3-1 1.5.9 1.9 2.8 1 4.3-17.1 28-46.7 54-48 55.1-.5.4-1.2.7-2 .7zm0 44.2c-1.3 0-2.5-.8-2.9-2.1-.6-1.6.3-3.4 1.9-3.9.4-.2 45.2-15.6 67.7-43.3 1.1-1.3 3-1.5 4.4-.5 1.3 1.1 1.5 3 .5 4.4-23.6 29.1-68.6 44.6-70.5 45.2-.4.2-.7.2-1.1.2z"/></svg>